<svg xmlns="http://www.w3.org/2000/svg" width="980" height="440" viewBox="0 0 980 440">
<style>
.bg { fill: #fffaf3; }
.panel { fill: #fffdf8; stroke: #eadfce; stroke-width: 1; }
.title { font: 700 22px Georgia, serif; fill: #1f2937; }
.label { font: 12px Helvetica, Arial, sans-serif; fill: #374151; }
.small { font: 11px Helvetica, Arial, sans-serif; fill: #6b7280; }
.axis { stroke: #9ca3af; stroke-width: 1; }
.grid { stroke: #ece7df; stroke-width: 1; }
</style>
<rect width="100%" height="100%" class="bg"/>
<rect x="20" y="18" width="940" height="404" rx="18" class="panel"/>
<text x="44" y="48" class="title">Real Run Metric Comparison</text>
<text x="44" y="68" class="small">Higher is better for overall and grade fidelity. Lower is better for omission and overrecommendation metrics.</text>
<line x1="80" y1="86" x2="80" y2="352" class="axis"/>
<line x1="80" y1="352" x2="940" y2="352" class="axis"/>
<text x="166.0" y="74" text-anchor="middle" class="small">max 2.0 | higher better</text>
<text x="166.0" y="376" text-anchor="middle" class="label">overall</text>
<line x1="90.0" y1="86" x2="242.0" y2="86" class="grid"/>
<rect x="127.0" y="95.31" width="34" height="256.69" fill="#0f766e" rx="4"/>
<text x="144.0" y="88.31" text-anchor="middle" class="small">1.93</text>
<rect x="171.0" y="113.93" width="34" height="238.07" fill="#1d4ed8" rx="4"/>
<text x="188.0" y="106.93" text-anchor="middle" class="small">1.79</text>
<text x="338.0" y="74" text-anchor="middle" class="small">max 1.0 | higher better</text>
<text x="338.0" y="376" text-anchor="middle" class="label">grade fidelity</text>
<line x1="262.0" y1="86" x2="414.0" y2="86" class="grid"/>
<rect x="299.0" y="99.30000000000001" width="34" height="252.7" fill="#0f766e" rx="4"/>
<text x="316.0" y="92.30000000000001" text-anchor="middle" class="small">0.95</text>
<rect x="343.0" y="125.9" width="34" height="226.1" fill="#1d4ed8" rx="4"/>
<text x="360.0" y="118.9" text-anchor="middle" class="small">0.85</text>
<text x="510.0" y="74" text-anchor="middle" class="small">max 1.0 | lower better</text>
<text x="510.0" y="376" text-anchor="middle" class="label">C omission</text>
<line x1="434.0" y1="86" x2="586.0" y2="86" class="grid"/>
<rect x="471.0" y="352.0" width="34" height="0.0" fill="#0f766e" rx="4"/>
<text x="488.0" y="345.0" text-anchor="middle" class="small">0.00</text>
<rect x="515.0" y="152.5" width="34" height="199.5" fill="#1d4ed8" rx="4"/>
<text x="532.0" y="145.5" text-anchor="middle" class="small">0.75</text>
<text x="682.0" y="74" text-anchor="middle" class="small">max 1.0 | lower better</text>
<text x="682.0" y="376" text-anchor="middle" class="label">I overrec</text>
<line x1="606.0" y1="86" x2="758.0" y2="86" class="grid"/>
<rect x="643.0" y="352.0" width="34" height="0.0" fill="#0f766e" rx="4"/>
<text x="660.0" y="345.0" text-anchor="middle" class="small">0.00</text>
<rect x="687.0" y="352.0" width="34" height="0.0" fill="#1d4ed8" rx="4"/>
<text x="704.0" y="345.0" text-anchor="middle" class="small">0.00</text>
<text x="854.0" y="74" text-anchor="middle" class="small">max 1.0 | lower better</text>
<text x="854.0" y="376" text-anchor="middle" class="label">unsupported</text>
<line x1="778.0" y1="86" x2="930.0" y2="86" class="grid"/>
<rect x="815.0" y="352.0" width="34" height="0.0" fill="#0f766e" rx="4"/>
<text x="832.0" y="345.0" text-anchor="middle" class="small">0.00</text>
<rect x="859.0" y="352.0" width="34" height="0.0" fill="#1d4ed8" rx="4"/>
<text x="876.0" y="345.0" text-anchor="middle" class="small">0.00</text>
<rect x="80" y="400" width="14" height="14" fill="#0f766e" rx="2"/>
<text x="102" y="412" class="label">gpt-5-mini (real_run_template_20260410)</text>
<rect x="310" y="400" width="14" height="14" fill="#1d4ed8" rx="2"/>
<text x="332" y="412" class="label">gpt-5-nano (real_openai_gpt5nano_20260410)</text>
</svg>
